<svg width="275" height="230" viewBox="0 0 275 230" fill="none" xmlns="http://www.w3.org/2000/svg">
<ellipse cx="137" cy="130.5" rx="103" ry="99.5" fill="black"/>
<path d="M162.83 1.51057L163.793 37.975L149.232 35.3586L162.83 1.51057Z" fill="black"/>
<path d="M117.526 1.52105L127.088 36.7225L112.321 37.625L117.526 1.52105Z" fill="black"/>
<path d="M71.3873 17.9615L93.8988 46.6636L80.6484 53.2434L71.3873 17.9615Z" fill="black"/>
<path d="M35.6112 46.7208L68.4276 62.6477L59.4032 74.3707L35.6112 46.7208Z" fill="black"/>
<path d="M12.8138 79.5788L48.0411 89.0456L41.3841 102.257L12.8138 79.5788Z" fill="black"/>
<path d="M0.586927 125.521L36.73 120.596L35.7134 135.355L0.586927 125.521Z" fill="black"/>
<path d="M273.383 123.423L239.387 136.646L236.931 122.057L273.383 123.423Z" fill="black"/>
<path d="M262.687 88.4618L230.654 105.91L226.359 91.7532L262.687 88.4618Z" fill="black"/>
<path d="M244.616 49.9258L219.982 76.8285L211.324 64.8326L244.616 49.9258Z" fill="black"/>
<path d="M207.91 17.8438L195.749 52.2342L183.091 44.5761L207.91 17.8438Z" fill="black"/>
</svg>
